{"glyphs":{"0":{"ha":983,"x_min":68,"x_max":916,"o":"m 746 644 q 711 678 746 677 l 271 678 q 237 644 237 678 l 237 203 q 271 170 237 170 l 712 170 q 746 204 746 170 l 746 644 m 916 170 q 746 0 915 0 l 237 0 q 68 170 68 0 l 68 677 q 237 848 68 848 l 746 848 q 916 678 916 847 l 916 170 z "},"1":{"ha":305,"x_min":-68,"x_max":238,"o":"m 238 0 l 70 0 l 68 678 l -68 678 l 34 848 l 238 848 l 238 0 z "},"2":{"ha":983,"x_min":68,"x_max":916,"o":"m 746 644 q 712 678 746 678 l 68 678 l 68 848 l 750 848 q 916 678 915 848 l 916 509 q 746 339 916 339 l 271 339 q 237 305 237 339 l 237 170 l 915 170 l 915 0 l 68 0 l 68 340 q 237 509 68 508 l 712 508 q 746 546 746 512 l 746 644 z "},"3":{"ha":983,"x_min":68,"x_max":916,"o":"m 271 340 l 373 509 l 711 509 q 745 543 745 509 l 745 646 q 715 678 745 678 l 68 678 l 68 848 l 745 848 q 916 678 915 848 l 916 543 q 848 441 916 476 q 916 306 916 408 l 915 171 l 915 170 q 751 1 915 1 l 68 0 l 68 170 l 711 170 q 745 204 745 170 l 746 306 q 711 340 745 340 l 271 340 z "},"4":{"ha":983,"x_min":68,"x_max":916,"o":"m 746 373 l 746 847 l 916 848 l 916 0 l 746 0 l 746 203 l 237 203 q 68 373 68 203 l 68 848 l 237 848 l 237 406 q 272 373 237 373 l 746 373 z "},"5":{"ha":983,"x_min":68,"x_max":916,"o":"m 746 302 q 712 340 746 336 l 237 339 q 68 508 68 340 l 68 848 l 915 848 l 915 678 l 237 678 l 237 543 q 271 509 237 509 l 746 509 q 916 339 916 509 l 916 170 q 750 0 915 0 l 68 0 l 68 170 l 712 170 q 746 204 746 170 l 746 302 z "},"6":{"ha":983,"x_min":68,"x_max":916,"o":"m 237 0 q 68 170 68 0 l 68 678 q 237 848 68 848 l 848 848 l 848 678 l 271 678 q 237 644 237 678 l 237 576 l 746 576 q 916 407 916 576 l 916 170 q 750 0 916 0 l 237 0 m 237 203 q 271 170 237 170 l 711 170 q 746 203 746 170 l 746 374 q 712 407 746 407 l 271 407 q 237 373 238 407 l 237 203 z "},"7":{"ha":983,"x_min":68,"x_max":916,"o":"m 746 678 l 68 678 l 68 848 l 916 848 l 916 576 q 746 407 916 407 l 542 407 q 509 374 509 407 l 509 0 l 340 0 l 340 407 q 509 576 340 576 l 711 576 q 746 609 745 576 l 746 678 z "},"8":{"ha":983,"x_min":68,"x_max":916,"o":"m 237 203 q 272 170 237 170 l 712 170 q 746 204 746 170 l 746 305 q 712 339 746 339 l 271 340 q 237 306 237 339 l 237 203 m 746 644 q 712 678 746 678 l 271 678 q 237 644 237 678 l 237 543 q 271 508 237 508 l 712 508 q 746 543 745 508 l 746 644 m 916 576 q 847 425 915 475 q 916 306 915 374 l 916 170 q 745 0 916 0 l 237 0 q 68 170 68 0 l 68 323 q 136 424 68 373 q 68 574 68 475 l 68 678 q 237 848 68 848 l 750 848 q 916 678 916 847 l 916 576 z "},"9":{"ha":949,"x_min":0,"x_max":848,"o":"m 678 848 q 848 677 847 848 l 848 170 q 678 0 848 0 l 68 0 l 68 170 l 644 170 q 678 204 678 170 l 678 271 l 170 271 q 0 441 0 271 l 0 677 q 165 848 0 848 l 678 848 m 678 644 q 644 678 678 678 l 204 678 q 170 644 170 678 l 170 474 q 204 441 170 441 l 644 440 q 677 475 677 441 l 678 644 z "},"\u0000":{"ha":0,"x_min":0,"x_max":0,"o":""}," ":{"ha":574,"x_min":0,"x_max":0,"o":""},"!":{"ha":305,"x_min":68,"x_max":237,"o":"m 186 170 q 237 119 237 170 l 237 51 q 186 0 237 0 l 119 0 q 68 51 68 0 l 68 119 q 119 170 68 170 l 186 170 m 237 271 l 68 271 l 68 848 l 237 848 l 237 271 z "},"\"":{"ha":543,"x_min":68,"x_max":475,"o":"m 186 882 q 237 831 237 882 l 237 712 l 136 543 l 68 543 l 68 831 q 119 882 68 882 l 186 882 m 424 882 q 475 831 475 882 l 475 712 l 373 543 l 305 543 l 305 831 q 356 882 305 882 l 424 882 z "},"#":{"ha":780,"x_min":68,"x_max":712,"o":"m 441 238 l 339 238 l 339 136 l 170 136 l 170 238 l 68 237 l 68 407 l 170 407 l 170 509 l 68 509 l 68 678 l 170 678 l 170 780 l 339 780 l 339 678 l 441 678 l 441 780 l 610 780 l 610 678 l 711 678 l 711 509 l 610 509 l 610 407 l 712 407 l 712 238 l 610 238 l 610 136 l 441 136 l 441 238 m 441 509 l 339 509 l 339 407 l 441 407 l 441 509 z "},"$":{"ha":916,"x_min":67,"x_max":848,"o":"m 372 508 l 372 610 l 271 610 q 237 576 237 610 l 237 542 q 271 508 237 509 l 372 508 m 542 237 l 644 237 q 677 271 677 237 l 677 306 q 644 339 677 339 l 542 339 l 542 237 m 542 508 l 677 508 q 848 325 847 508 l 847 325 l 847 238 q 682 68 847 68 l 542 68 l 542 0 l 372 0 l 372 68 l 67 68 l 67 237 l 372 237 l 372 339 l 237 339 q 67 508 67 339 l 67 610 q 237 779 67 779 l 372 779 l 372 848 l 542 848 l 542 779 l 847 779 l 847 610 l 542 610 l 542 508 z "},"%":{"ha":1017,"x_min":68,"x_max":951,"o":"m 271 509 l 373 509 q 408 542 407 509 l 408 644 q 374 678 408 678 l 272 678 q 238 644 238 678 l 237 543 q 271 509 237 509 m 644 170 l 746 170 q 781 203 780 170 l 781 305 q 747 339 781 339 l 645 339 q 611 305 611 339 l 610 203 q 644 170 610 170 m 466 64 l 440 0 l 237 0 l 373 339 l 237 339 q 68 509 68 339 l 68 678 q 238 848 68 848 l 408 848 q 551 785 510 848 l 576 848 l 779 848 l 644 509 l 781 509 q 951 339 950 509 l 950 170 q 798 0 950 0 l 610 0 q 466 64 506 0 z "},"&":{"ha":916,"x_min":68,"x_max":848,"o":"m 373 68 l 232 68 q 68 237 68 68 l 68 239 l 68 306 q 136 441 68 408 q 68 543 68 476 l 68 610 q 238 781 68 781 l 373 781 l 373 848 l 543 848 l 543 781 l 848 780 l 848 610 l 543 610 l 543 509 l 610 509 l 712 340 l 543 340 l 543 238 l 848 238 l 848 68 l 543 68 l 543 0 l 373 0 l 373 68 m 373 610 l 268 610 q 238 578 238 610 l 238 543 q 272 509 238 509 l 373 509 l 373 610 m 373 340 l 272 340 q 237 306 238 340 l 238 272 q 272 238 238 238 l 373 238 l 373 340 z "},"'":{"ha":305,"x_min":68,"x_max":237,"o":"m 186 882 q 237 831 237 882 l 237 712 l 136 543 l 68 543 l 68 831 q 119 882 68 882 l 186 882 z "},"(":{"ha":475,"x_min":68,"x_max":407,"o":"m 237 136 q 271 102 237 102 l 407 102 l 407 -68 l 237 -68 q 68 102 68 -68 l 68 746 q 237 916 68 916 l 407 916 l 407 746 l 272 746 q 237 712 238 745 l 237 136 z "},")":{"ha":475,"x_min":68,"x_max":407,"o":"m 237 712 q 203 746 237 745 l 68 746 l 68 916 l 237 916 q 407 746 407 916 l 407 102 q 237 -68 407 -68 l 68 -68 l 68 102 l 203 102 q 237 136 237 102 l 237 712 z "},"*":{"ha":780,"x_min":73,"x_max":707,"o":"m 305 727 l 305 916 l 475 916 l 475 727 l 654 785 l 707 624 l 528 566 l 638 413 l 500 313 l 390 467 l 279 313 l 142 413 l 252 566 l 73 624 l 126 785 l 305 727 z "},"+":{"ha":780,"x_min":68,"x_max":712,"o":"m 475 509 l 711 509 l 712 339 l 475 339 l 475 102 l 305 102 l 305 339 l 68 339 l 68 509 l 305 509 l 305 746 l 475 746 l 475 509 z "},",":{"ha":305,"x_min":68,"x_max":237,"o":"m 186 170 q 237 119 237 170 l 237 0 l 136 -170 l 68 -170 l 68 119 q 119 170 68 170 l 186 170 z "},"-":{"ha":780,"x_min":-34,"x_max":712,"o":"m 712 508 l 610 339 l -34 339 l 68 508 l 712 508 z "},".":{"ha":305,"x_min":68,"x_max":237,"o":"m 186 170 q 237 119 237 170 l 237 51 q 186 0 237 0 l 119 0 q 68 51 68 0 l 68 119 q 119 170 68 170 l 186 170 z "},"/":{"ha":610,"x_min":34,"x_max":576,"o":"m 237 0 l 34 0 l 372 848 l 576 848 l 237 0 z "},":":{"ha":305,"x_min":68,"x_max":237,"o":"m 186 170 q 237 119 237 170 l 237 51 q 186 0 237 0 l 119 0 q 68 51 68 0 l 68 119 q 119 170 68 170 l 186 170 m 186 509 q 237 458 237 509 l 237 390 q 186 339 237 339 l 119 339 q 68 390 68 339 l 68 458 q 119 509 68 509 l 186 509 z "},";":{"ha":305,"x_min":68,"x_max":237,"o":"m 186 170 q 237 119 237 170 l 237 0 l 136 -170 l 68 -170 l 68 119 q 119 170 68 170 l 186 170 m 186 509 q 237 458 237 509 l 237 390 q 186 339 237 339 l 119 339 q 68 390 68 339 l 68 458 q 119 509 68 509 l 186 509 z "},"<":{"ha":780,"x_min":68,"x_max":712,"o":"m 68 509 l 712 746 l 712 576 l 298 424 l 712 271 l 712 102 l 68 339 l 68 509 z "},"=":{"ha":746,"x_min":0,"x_max":644,"o":"m 644 339 l 644 170 l 0 170 l 0 339 l 644 339 m 644 678 l 644 509 l 0 509 l 0 678 l 644 678 z "},">":{"ha":780,"x_min":68,"x_max":712,"o":"m 712 339 l 68 102 l 68 271 l 482 424 l 68 576 l 68 746 l 712 509 l 712 339 z "},"?":{"ha":916,"x_min":68,"x_max":848,"o":"m 677 644 q 646 678 677 678 l 68 678 l 68 847 l 682 847 q 848 678 848 847 l 848 509 q 678 339 848 340 l 475 339 q 441 305 441 339 l 441 271 l 271 271 l 271 339 q 441 509 271 509 l 644 508 q 677 541 677 509 l 677 644 m 390 170 q 441 119 441 170 l 441 51 q 390 0 441 0 l 322 0 q 271 51 271 0 l 271 119 q 322 170 271 170 l 390 170 z "},"@":{"ha":848,"x_min":67,"x_max":780,"o":"m 611 441 q 577 475 611 475 l 475 475 q 441 441 441 475 l 441 408 q 475 373 441 373 l 576 374 q 611 408 610 374 l 611 441 m 610 644 q 577 678 610 678 l 271 678 q 237 644 237 678 l 236 171 q 271 170 237 170 l 678 170 l 576 0 l 248 0 q 67 180 68 0 l 67 678 q 235 847 67 847 l 612 847 q 780 678 780 847 l 780 373 q 610 203 780 203 l 440 203 q 271 374 271 204 l 271 475 q 441 644 271 644 l 610 644 z "},"A":{"ha":983,"x_min":-68,"x_max":916,"o":"m 745 644 q 748 658 748 652 q 711 678 748 678 l 272 678 q 237 644 237 678 l 237 509 l 745 509 l 745 644 m 916 0 l 746 0 l 746 339 l 237 340 l 237 0 l 68 0 l 68 339 l -68 339 l 34 509 l 68 509 l 68 678 q 238 848 68 848 l 746 847 l 747 847 q 916 678 916 847 l 916 0 z "},"B":{"ha":983,"x_min":-68,"x_max":916,"o":"m 237 170 l 712 170 q 746 203 746 170 l 746 306 q 711 339 745 339 l 237 339 l 237 170 m 746 644 q 712 677 746 677 l 237 678 l 237 509 l 712 509 q 746 542 745 509 l 746 644 m 916 543 q 848 441 916 475 q 916 306 916 374 l 916 170 q 745 0 900 0 l 68 0 l 68 339 l -68 339 l 34 509 l 68 509 l 68 678 l -68 678 l 34 847 l 746 848 q 916 678 916 848 l 916 543 z "},"C":{"ha":983,"x_min":68,"x_max":916,"o":"m 237 203 q 271 170 237 170 l 916 170 l 916 0 l 237 0 q 68 170 69 0 l 68 678 q 238 848 68 848 l 916 848 l 916 678 l 271 678 q 237 644 237 678 l 237 203 z "},"D":{"ha":983,"x_min":-68,"x_max":916,"o":"m 746 644 q 712 678 746 678 l 238 677 l 238 170 l 711 170 q 746 203 746 170 l 746 644 m 916 170 q 746 0 916 0 l 69 0 l 68 678 l -68 677 l 34 848 l 753 848 q 916 677 915 848 l 916 170 z "},"E":{"ha":983,"x_min":-68,"x_max":916,"o":"m 678 508 l 576 339 l 238 339 l 238 170 l 916 170 l 916 0 l 68 0 l 68 339 l -68 339 l 34 508 l 68 508 l 68 678 l -68 678 l 34 848 l 916 848 l 916 678 l 237 678 l 237 508 l 678 508 z "},"F":{"ha":983,"x_min":-68,"x_max":916,"o":"m 678 508 l 576 339 l 237 339 l 237 0 l 68 0 l 68 339 l -68 340 l 34 508 l 68 508 l 68 678 l -68 678 l 34 848 l 916 848 l 916 678 l 237 678 l 237 508 l 678 508 z "},"G":{"ha":983,"x_min":68,"x_max":916,"o":"m 916 0 l 238 0 q 68 170 69 0 l 68 678 q 233 848 68 848 l 916 848 l 915 678 l 271 678 q 237 644 237 677 l 237 203 q 272 170 237 170 l 746 170 l 746 340 l 407 339 l 508 508 l 916 509 l 916 0 z "},"H":{"ha":983,"x_min":-68,"x_max":916,"o":"m 746 508 l 746 848 l 916 848 l 916 0 l 746 0 l 746 339 l 238 339 l 238 0 l 68 0 l 68 339 l -68 339 l 34 508 l 68 509 l 68 848 l 237 848 l 237 509 l 746 508 z "},"I":{"ha":305,"x_min":68,"x_max":237,"o":"m 237 0 l 68 0 l 68 848 l 237 848 l 237 0 z "},"J":{"ha":848,"x_min":68,"x_max":780,"o":"m 780 170 q 615 0 780 0 l 237 0 q 68 170 68 0 l 68 340 l 237 339 l 237 203 q 271 170 237 170 l 576 170 q 610 204 610 170 l 610 848 l 780 848 l 780 170 z "},"K":{"ha":1017,"x_min":-68,"x_max":949,"o":"m 751 509 q 916 339 916 506 l 916 0 l 746 0 l 746 305 q 711 339 745 339 l 237 339 l 238 0 l 68 0 l 68 340 l -68 340 l 34 508 l 68 509 l 68 848 l 237 848 l 237 509 l 548 509 l 746 848 l 949 848 l 751 509 z "},"L":{"ha":848,"x_min":-68,"x_max":780,"o":"m 238 170 l 780 170 l 780 0 l 68 0 l 68 678 l -68 678 l 22 848 l 237 847 l 238 170 z "},"M":{"ha":1187,"x_min":-68,"x_max":1119,"o":"m 677 678 l 677 0 l 509 0 l 508 678 l 238 678 l 238 0 l 69 0 l 68 678 l -68 678 l 34 848 l 949 848 q 1119 677 1119 847 l 1119 0 l 949 0 l 949 644 q 916 678 949 678 l 677 678 z "},"N":{"ha":983,"x_min":-68,"x_max":916,"o":"m 916 0 l 745 0 l 745 644 q 712 678 745 678 l 237 678 l 237 0 l 69 0 l 68 678 l -68 678 l 34 848 l 746 848 q 916 678 916 848 l 916 0 z "},"O":{"ha":983,"x_min":68,"x_max":916,"o":"m 746 644 q 711 678 746 677 l 271 678 q 237 644 237 678 l 237 203 q 271 170 237 170 l 712 170 q 746 204 746 170 l 746 644 m 916 170 q 746 0 915 0 l 237 0 q 68 170 68 0 l 68 677 q 237 848 68 848 l 746 848 q 916 678 916 847 l 916 170 z "},"P":{"ha":983,"x_min":-68,"x_max":916,"o":"m 746 644 q 713 678 746 677 l 237 678 l 237 508 l 712 508 q 746 543 746 509 l 746 644 m 916 508 q 746 339 916 339 l 237 339 l 237 0 l 69 0 l 68 340 l -68 340 l 35 508 l 68 508 l 68 677 l -68 678 l 68 848 l 746 848 q 916 678 916 848 l 916 508 z "},"Q":{"ha":983,"x_min":68,"x_max":949,"o":"m 237 0 q 68 170 68 0 l 68 677 q 237 848 68 848 l 746 848 q 916 678 916 847 l 916 170 q 898 78 916 115 l 949 0 l 237 0 m 633 170 l 475 407 l 678 407 l 746 305 l 746 644 q 711 678 746 677 l 271 678 q 237 644 237 678 l 237 203 q 271 170 237 170 l 633 170 z "},"R":{"ha":1017,"x_min":-68,"x_max":949,"o":"m 746 644 q 713 678 746 677 l 237 678 l 237 508 l 712 508 q 746 543 746 509 l 746 644 m 532 339 l 237 339 l 237 0 l 69 0 l 68 340 l -68 340 l 35 508 l 68 508 l 68 677 l -68 678 l 68 848 l 746 848 q 916 678 916 848 l 916 508 q 746 339 916 339 l 724 339 l 949 0 l 746 0 l 532 339 z "},"S":{"ha":983,"x_min":68,"x_max":916,"o":"m 746 306 q 712 339 746 339 l 237 339 q 68 508 68 339 l 68 678 q 238 848 68 848 l 916 848 l 916 678 l 272 678 q 237 644 237 678 l 237 542 q 272 508 237 509 l 745 508 q 916 325 916 508 l 916 325 l 916 170 q 750 0 916 0 l 68 0 l 68 170 l 712 170 q 746 203 746 170 l 746 306 z "},"T":{"ha":983,"x_min":-68,"x_max":916,"o":"m 576 0 l 407 0 l 407 678 l -68 678 l 34 848 l 916 848 l 916 678 l 576 678 l 576 0 z "},"U":{"ha":983,"x_min":68,"x_max":916,"o":"m 916 170 q 746 0 915 0 l 237 0 q 68 170 68 0 l 68 848 l 237 848 l 237 204 q 272 170 237 170 l 712 170 q 746 203 746 170 l 746 848 l 916 848 l 916 170 z "},"V":{"ha":949,"x_min":68,"x_max":882,"o":"m 882 543 q 543 0 881 203 l 408 0 q 68 542 68 203 l 68 848 l 237 848 l 237 509 q 475 170 237 339 q 712 509 711 340 l 712 848 l 882 848 l 882 543 z "},"W":{"ha":1187,"x_min":68,"x_max":1119,"o":"m 677 509 q 814 170 677 339 q 949 509 949 339 l 949 848 l 1119 848 l 1119 543 q 915 0 1119 237 l 746 0 q 591 191 644 102 q 441 0 543 102 l 305 0 q 68 538 68 237 l 68 848 l 237 848 l 237 509 q 373 170 237 339 q 509 509 509 339 l 509 848 l 678 848 l 677 509 z "},"X":{"ha":949,"x_min":34,"x_max":916,"o":"m 373 424 l 34 848 l 237 848 l 475 551 l 712 848 l 916 848 l 576 424 l 916 0 l 712 0 l 475 297 l 237 0 l 34 0 l 373 424 z "},"Y":{"ha":949,"x_min":68,"x_max":882,"o":"m 390 283 q 68 814 68 484 l 68 848 l 237 848 l 237 781 q 475 441 237 611 q 712 781 711 612 l 712 848 l 882 848 l 882 814 q 559 282 881 484 l 559 0 l 390 0 l 390 283 z "},"Z":{"ha":983,"x_min":68,"x_max":916,"o":"m 305 170 l 916 170 l 916 0 l 68 0 l 68 170 l 678 677 l 68 677 l 68 848 l 916 847 l 916 678 l 305 170 z "},"[":{"ha":475,"x_min":68,"x_max":407,"o":"m 237 102 l 407 102 l 407 -68 l 68 -68 l 68 916 l 407 916 l 407 746 l 237 746 l 237 102 z "},"\\":{"ha":610,"x_min":34,"x_max":576,"o":"m 34 848 l 237 848 l 576 0 l 373 0 l 34 848 z "},"]":{"ha":475,"x_min":68,"x_max":407,"o":"m 237 746 l 68 746 l 68 916 l 407 916 l 407 -68 l 68 -68 l 68 102 l 237 102 l 237 746 z "},"^":{"ha":746,"x_min":68,"x_max":678,"o":"m 373 1088 l 254 949 l 68 949 l 271 1187 l 475 1187 l 678 949 l 492 949 l 373 1088 z "},"_":{"ha":916,"x_min":68,"x_max":848,"o":"m 68 -68 l 848 -68 l 848 -237 l 68 -237 l 68 -68 z "},"`":{"ha":509,"x_min":68,"x_max":441,"o":"m 441 916 l 339 916 l 68 1153 l 339 1153 l 441 916 z "},"a":{"ha":848,"x_min":68,"x_max":780,"o":"m 271 271 q 237 237 237 271 l 237 203 q 271 170 237 170 l 576 170 q 610 203 610 170 l 610 271 l 271 271 m 610 441 q 576 475 610 475 l 203 475 l 203 644 l 610 644 q 780 474 779 644 l 780 0 l 203 0 q 68 170 68 0 l 68 271 q 237 441 68 441 l 610 441 z "},"b":{"ha":848,"x_min":68,"x_max":781,"o":"m 237 170 l 577 170 q 611 203 611 170 l 611 441 q 576 475 610 475 l 237 475 l 237 170 m 628 644 q 781 475 781 644 l 781 170 q 610 0 765 0 l 68 0 l 68 848 l 237 848 l 237 644 l 628 644 z "},"c":{"ha":848,"x_min":66,"x_max":780,"o":"m 236 203 q 270 170 236 170 l 780 170 l 780 0 l 236 0 q 66 170 68 0 l 66 475 q 237 644 66 644 l 780 644 l 780 475 l 270 475 q 236 441 236 475 l 236 203 z "},"d":{"ha":848,"x_min":68,"x_max":781,"o":"m 611 475 l 272 475 q 237 441 238 475 l 237 203 q 271 170 237 170 l 611 170 l 611 475 m 611 644 l 611 916 l 780 916 l 781 0 l 238 0 q 68 170 68 0 l 68 475 q 220 644 68 644 l 611 644 z "},"e":{"ha":848,"x_min":66,"x_max":781,"o":"m 578 373 q 610 407 610 373 l 610 441 q 576 475 610 475 l 270 475 q 236 441 236 475 l 237 373 l 578 373 m 236 203 q 270 170 236 170 l 644 170 l 644 0 l 236 0 q 66 170 68 0 l 66 475 q 237 644 66 644 l 644 644 q 780 475 780 644 l 781 373 q 612 203 781 203 l 236 203 z "},"f":{"ha":475,"x_min":-68,"x_max":475,"o":"m 408 508 l 305 339 l 237 339 l 237 0 l 68 0 l 68 339 l -68 340 l 34 508 l 68 508 l 68 678 q 237 848 68 848 l 475 848 l 475 678 l 237 678 l 237 508 l 408 508 z "},"g":{"ha":848,"x_min":68,"x_max":781,"o":"m 611 475 l 271 475 q 237 441 237 475 l 237 203 q 272 170 238 170 l 611 170 l 611 475 m 220 0 q 68 170 68 0 l 68 475 q 238 644 83 644 l 781 644 l 781 -102 q 610 -271 780 -271 l 203 -271 l 203 -102 l 576 -102 q 610 -68 610 -102 l 610 0 l 220 0 z "},"h":{"ha":848,"x_min":68,"x_max":781,"o":"m 68 0 l 68 848 l 237 848 l 237 644 l 628 644 q 781 475 781 644 l 780 0 l 610 0 l 611 441 q 576 475 610 475 l 237 475 l 237 0 l 68 0 z "},"i":{"ha":305,"x_min":68,"x_max":237,"o":"m 237 0 l 68 0 l 68 644 l 237 644 l 237 0 m 186 848 q 237 797 237 848 l 237 729 q 186 678 237 678 l 119 678 q 68 729 68 678 l 68 797 q 119 848 68 848 l 186 848 z "},"j":{"ha":305,"x_min":-102,"x_max":237,"o":"m 237 -102 q 68 -271 237 -271 l -102 -271 l 34 -102 q 68 -68 68 -102 l 68 644 l 237 644 l 237 -102 m 186 848 q 237 797 237 848 l 237 729 q 186 678 237 678 l 119 678 q 68 729 68 678 l 68 797 q 119 848 68 848 l 186 848 z "},"k":{"ha":848,"x_min":68,"x_max":781,"o":"m 407 407 l 593 644 l 780 644 l 593 407 l 628 407 q 781 237 781 407 l 780 0 l 610 0 l 611 204 q 576 237 610 237 l 237 237 l 237 0 l 68 0 l 68 848 l 237 848 l 237 407 l 407 407 z "},"l":{"ha":305,"x_min":68,"x_max":237,"o":"m 237 0 l 68 0 l 68 848 l 237 848 l 237 0 z "},"m":{"ha":983,"x_min":68,"x_max":916,"o":"m 576 475 l 576 0 l 408 0 l 408 475 l 237 475 l 237 0 l 68 0 l 68 644 l 746 644 q 916 474 916 644 l 916 0 l 746 0 l 746 440 q 712 475 746 475 l 576 475 z "},"n":{"ha":848,"x_min":68,"x_max":780,"o":"m 780 0 l 610 0 l 610 441 q 576 475 610 475 l 237 475 l 237 0 l 68 0 l 68 644 l 610 644 q 780 475 780 644 l 780 0 z "},"o":{"ha":882,"x_min":68,"x_max":781,"o":"m 271 170 l 576 170 q 611 203 610 170 l 611 441 q 577 475 611 475 l 271 475 q 237 441 237 475 l 237 203 q 271 170 237 170 m 237 0 q 68 170 68 0 l 68 475 q 237 644 68 644 l 610 644 q 781 475 765 644 l 781 170 q 628 0 781 0 l 237 0 z "},"p":{"ha":848,"x_min":68,"x_max":780,"o":"m 237 170 l 576 170 q 610 203 610 170 l 610 441 q 576 475 610 475 l 237 475 l 237 170 m 237 0 l 237 -271 l 68 -271 l 68 644 l 610 644 q 780 475 764 644 l 780 170 q 627 0 780 0 l 237 0 z "},"q":{"ha":848,"x_min":68,"x_max":781,"o":"m 611 475 l 271 475 q 237 441 237 475 l 237 203 q 272 170 238 170 l 611 170 l 611 475 m 220 0 q 68 170 68 0 l 68 475 q 238 644 83 644 l 781 644 l 780 -271 l 611 -271 l 611 0 l 220 0 z "},"r":{"ha":780,"x_min":66,"x_max":712,"o":"m 712 441 l 542 441 q 509 475 542 475 l 236 475 l 236 0 l 68 0 l 66 644 l 543 644 q 712 475 712 644 l 712 441 z "},"s":{"ha":848,"x_min":67,"x_max":780,"o":"m 606 203 q 572 237 606 237 l 237 237 q 68 406 68 237 l 67 475 q 237 644 67 644 l 644 644 l 644 475 l 271 475 q 237 441 237 475 l 237 439 q 271 407 237 407 l 610 407 q 780 237 780 407 l 780 170 q 610 0 776 0 l 68 0 l 68 170 l 572 170 q 606 203 606 170 z "},"t":{"ha":441,"x_min":-68,"x_max":373,"o":"m 237 475 l 237 170 l 373 170 l 373 0 l 237 0 q 68 170 68 0 l 68 475 l -68 475 l 34 644 l 68 644 l 68 848 l 237 848 l 237 644 l 373 644 l 271 475 l 237 475 z "},"u":{"ha":848,"x_min":68,"x_max":780,"o":"m 780 170 q 610 0 779 0 l 237 0 q 68 170 68 0 l 68 644 l 237 644 l 237 204 q 272 170 237 170 l 576 170 q 610 203 610 170 l 610 644 l 780 644 l 780 170 z "},"v":{"ha":882,"x_min":68,"x_max":814,"o":"m 814 543 q 508 0 813 203 l 373 0 q 68 542 68 203 l 68 645 l 237 645 l 237 509 q 441 170 237 339 q 644 509 644 339 l 644 644 l 814 644 l 814 543 z "},"w":{"ha":1051,"x_min":68,"x_max":984,"o":"m 610 509 q 712 170 610 339 q 814 509 814 339 l 814 644 l 984 644 l 984 543 q 780 0 984 237 l 644 0 q 524 191 576 102 q 407 0 475 102 l 271 0 q 68 538 68 237 l 68 644 l 237 644 l 237 509 q 339 170 237 339 q 441 509 441 339 l 441 644 l 610 644 l 610 509 z "},"x":{"ha":882,"x_min":34,"x_max":848,"o":"m 339 322 l 34 644 l 237 644 l 441 429 l 644 644 l 848 644 l 543 322 l 848 0 l 644 0 l 441 215 l 237 0 l 34 0 l 339 322 z "},"y":{"ha":848,"x_min":68,"x_max":781,"o":"m 610 644 l 781 644 l 781 -102 q 610 -271 780 -271 l 203 -271 l 203 -102 l 576 -102 q 610 -68 610 -102 l 610 0 l 220 0 q 68 170 68 0 l 68 644 l 237 644 l 237 203 q 272 170 238 170 l 611 170 l 610 644 z "},"z":{"ha":848,"x_min":68,"x_max":780,"o":"m 339 170 l 780 170 l 780 1 l 68 0 l 68 170 l 509 475 l 68 475 l 68 644 l 780 644 l 780 475 l 339 170 z "},"{":{"ha":949,"x_min":75,"x_max":871,"o":"m 180 465 q 239 589 187 526 q 346 681 284 645 q 472 720 416 720 q 618 674 547 718 q 725 567 682 634 q 766 465 764 505 q 545 376 661 456 q 472 303 492 340 q 180 465 353 425 m 655 720 q 677 671 671 716 q 682 650 682 652 q 604 720 658 692 l 669 996 q 825 794 770 935 q 871 539 871 675 q 864 442 871 489 q 690 237 817 429 q 608 110 637 158 q 538 -20 562 34 q 543 54 543 9 q 527 236 543 167 q 507 280 517 273 q 711 423 552 336 q 798 465 775 458 q 759 574 798 496 q 734 612 744 605 q 749 709 749 655 q 718 873 749 797 q 702 904 706 900 l 655 720 m 290 720 l 245 904 q 212 813 230 900 q 198 709 198 744 q 212 612 198 655 q 161 509 191 596 q 148 465 148 472 q 359 347 214 446 q 441 280 420 306 q 404 54 404 254 q 408 -20 404 9 q 259 235 379 54 q 82 442 129 431 q 75 539 75 489 q 123 794 75 673 q 278 996 178 936 l 344 720 q 265 650 290 692 q 273 690 269 669 q 290 720 279 718 z "},"|":{"ha":305,"x_min":68,"x_max":237,"o":"m 237 -68 l 68 -68 l 68 916 l 237 916 l 237 -68 z "},"}":{"ha":1255,"x_min":0,"x_max":1059,"o":"m 1023 581 q 950 752 1012 665 q 815 882 892 834 l 832 905 q 1059 588 1019 795 l 1023 581 m 530 584 q 619 533 590 584 q 630 492 630 511 q 600 426 629 451 q 530 400 571 400 q 458 426 488 400 q 429 492 429 451 l 429 495 q 458 558 429 533 q 530 584 489 584 m 530 949 q 720 920 614 948 q 812 879 801 897 l 677 692 q 793 539 772 633 l 1023 581 q 1028 522 1028 549 l 663 492 q 593 606 663 570 q 530 621 561 621 q 432 586 469 620 q 395 492 395 552 l 31 522 q 37 581 31 545 l 265 539 q 382 692 287 633 l 246 879 q 256 886 247 882 l 260 889 q 442 941 321 924 q 530 949 505 949 m 530 2 q 329 37 425 2 l 340 64 q 433 41 363 50 q 530 33 492 33 q 627 41 570 33 q 718 64 694 50 l 730 37 q 530 2 635 2 m 35 581 l 0 588 q 227 905 41 797 l 244 882 q 109 752 166 831 q 35 581 48 668 m 58 460 q 186 474 84 474 q 364 460 303 474 q 395 442 395 452 q 453 389 409 411 q 530 369 492 369 q 609 390 568 369 q 663 442 650 410 q 872 474 663 474 q 1001 460 973 474 l 982 417 q 829 298 928 401 q 718 67 718 180 l 629 263 q 530 247 582 247 q 429 263 475 247 l 342 67 q 216 312 342 186 q 157 364 189 338 q 77 417 102 409 l 58 460 z "},"~":{"ha":780,"x_min":68,"x_max":712,"o":"m 271 983 q 237 949 237 983 l 237 916 l 68 916 l 68 983 q 238 1153 68 1153 l 509 1153 q 543 1187 543 1153 l 543 1221 l 712 1221 l 712 1153 q 542 983 712 983 l 271 983 z "},"¡":{"ha":305,"x_min":68,"x_max":237,"o":"m 119 678 q 68 729 68 678 l 68 797 q 119 848 68 848 l 186 848 q 237 797 237 848 l 237 729 q 186 678 237 678 l 119 678 m 68 576 l 237 576 l 237 0 l 68 0 l 68 576 z "},"¢":{"ha":916,"x_min":68,"x_max":850,"o":"m 409 68 l 238 68 q 68 238 70 68 l 68 543 q 238 712 68 712 l 409 712 l 409 780 l 578 780 l 578 712 l 849 712 l 849 543 l 578 543 l 578 237 l 850 237 l 850 68 l 578 68 l 578 0 l 409 0 l 409 68 m 407 543 l 269 543 q 237 509 237 543 l 236 271 q 270 237 236 237 l 407 237 l 407 543 z "},"£":{"ha":916,"x_min":68,"x_max":848,"o":"m 203 170 l 203 339 l 68 339 l 68 508 l 203 509 l 203 678 q 374 848 205 848 l 712 848 l 712 678 l 408 678 q 374 644 374 678 l 374 509 l 610 509 l 509 339 l 374 339 l 374 170 l 848 170 l 848 0 l 68 0 l 68 170 l 203 170 z "},"¤":{"ha":814,"x_min":34,"x_max":780,"o":"m 288 339 l 525 339 q 559 372 559 339 l 559 475 q 526 509 559 509 l 288 509 q 254 475 254 509 l 254 373 q 288 339 254 339 m 319 170 l 237 68 l 34 68 l 140 200 q 84 339 84 242 l 84 509 q 140 648 84 606 l 34 780 l 237 780 l 319 678 l 495 678 l 576 780 l 780 780 l 671 643 q 729 509 720 601 l 729 339 q 675 198 729 239 l 780 68 l 576 68 l 495 170 l 319 170 z "},"¥":{"ha":949,"x_min":68,"x_max":882,"o":"m 559 68 l 559 0 l 390 0 l 390 68 l 237 68 l 237 237 l 390 237 l 390 283 q 356 305 372 294 l 237 305 l 237 403 q 68 814 68 574 l 68 848 l 237 848 l 237 781 q 431 475 237 628 l 519 475 q 712 781 711 628 l 712 848 l 882 848 l 882 814 q 712 403 881 575 l 712 305 l 595 305 q 559 282 578 294 l 559 237 l 712 237 l 712 68 l 559 68 z "},"¦":{"ha":305,"x_min":68,"x_max":237,"o":"m 237 339 l 237 -68 l 68 -68 l 68 339 l 237 339 m 68 508 l 68 916 l 237 916 l 237 508 l 68 508 z "},"§":{"ha":916,"x_min":68,"x_max":848,"o":"m 339 305 l 576 305 q 610 338 610 305 l 610 509 q 576 543 610 543 l 339 543 q 305 509 305 543 l 305 339 q 339 305 305 305 m 780 483 q 848 325 848 441 l 848 325 l 848 102 q 682 -68 848 -68 l 68 -68 l 68 102 l 644 102 q 678 136 678 102 l 678 141 q 627 136 655 136 l 305 136 q 136 305 136 136 l 136 362 q 68 508 68 401 l 68 746 q 238 916 68 916 l 848 916 l 848 746 l 272 746 q 237 712 237 746 l 237 703 q 305 712 267 712 l 610 712 q 780 543 780 712 l 780 483 z "},"¨":{"ha":610,"x_min":68,"x_max":543,"o":"m 186 1119 q 237 1068 237 1119 l 237 1000 q 186 949 237 949 l 119 949 q 68 1000 68 949 l 68 1068 q 119 1119 68 1119 l 186 1119 m 492 1119 q 543 1068 543 1119 l 543 1000 q 492 949 543 949 l 424 949 q 373 1000 373 949 l 373 1068 q 424 1119 373 1119 l 492 1119 z "},"©":{"ha":678,"x_min":68,"x_max":610,"o":"m 494 848 q 339 916 429 916 q 171 833 241 916 q 102 636 102 751 q 171 438 102 520 q 339 356 241 356 q 494 424 429 356 l 237 424 q 153 509 153 424 l 153 763 q 238 848 153 848 l 494 848 m 509 440 q 576 636 576 522 q 509 831 576 750 l 509 763 l 254 763 q 237 746 237 763 l 237 526 q 254 509 237 509 l 509 509 l 509 440 m 531 858 q 571 812 531 858 q 610 636 610 766 q 531 414 610 506 q 339 322 452 322 q 147 414 227 322 q 68 636 68 506 q 147 858 68 766 q 339 949 227 949 q 531 858 452 949 z "},"ª":{"ha":1119,"x_min":0,"x_max":1017,"o":"m 136 0 q 0 136 0 0 l 0 882 q 136 1017 0 1017 l 882 1017 q 1017 882 1017 1017 l 1017 136 q 882 0 1017 0 l 136 0 m 882 17 q 1000 136 1000 17 l 1000 882 q 882 1000 1000 1000 l 136 1000 q 17 882 18 1000 l 17 136 q 136 17 18 17 l 882 17 z "},"«":{"ha":1085,"x_min":68,"x_max":1017,"o":"m 68 509 l 576 746 l 576 576 l 250 424 l 576 271 l 576 102 l 68 339 l 68 509 m 509 509 l 1017 746 l 1017 576 l 690 424 l 1017 271 l 1017 102 l 509 339 l 509 509 z "},"¬":{"ha":1119,"x_min":0,"x_max":1017,"o":"m 136 0 q 0 136 0 0 l 0 882 q 136 1017 0 1017 l 882 1017 q 1017 882 1017 1017 l 1017 136 q 882 0 1017 0 l 136 0 m 882 17 q 1000 136 1000 17 l 1000 882 q 882 1000 1000 1000 l 136 1000 q 17 882 18 1000 l 17 136 q 136 17 18 17 l 882 17 z "},"®":{"ha":678,"x_min":68,"x_max":610,"o":"m 441 746 q 425 763 441 763 l 254 763 l 254 678 l 424 678 q 441 695 441 678 l 441 746 m 521 456 q 576 636 576 532 q 507 833 576 751 q 339 916 437 916 q 184 848 250 916 l 441 848 q 526 763 526 848 l 526 678 q 441 593 526 593 l 430 593 l 521 456 m 170 439 l 170 594 l 104 594 q 170 439 115 506 m 104 597 l 153 678 l 170 678 l 170 763 l 127 763 q 102 636 102 705 q 104 597 102 616 m 494 424 l 441 424 l 334 593 l 254 593 l 254 424 l 184 424 q 339 356 250 356 q 494 424 429 356 m 541 426 l 543 424 l 539 424 q 531 414 535 419 q 339 322 452 322 q 147 414 227 322 q 68 636 68 506 q 147 858 68 766 q 339 949 227 949 q 531 858 452 949 q 610 636 610 766 q 541 426 610 515 z "},"¯":{"ha":1119,"x_min":0,"x_max":1017,"o":"m 136 0 q 0 136 0 0 l 0 882 q 136 1017 0 1017 l 882 1017 q 1017 882 1017 1017 l 1017 136 q 882 0 1017 0 l 136 0 m 882 17 q 1000 136 1000 17 l 1000 882 q 882 1000 1000 1000 l 136 1000 q 17 882 18 1000 l 17 136 q 136 17 18 17 l 882 17 z "},"°":{"ha":457,"x_min":41,"x_max":418,"o":"m 230 930 q 130 889 172 930 q 88 789 88 848 q 130 689 88 730 q 230 648 171 648 q 330 689 289 648 q 370 789 370 730 q 329 889 370 848 q 230 930 288 930 m 230 978 q 363 923 308 978 q 418 789 418 867 q 362 656 418 712 q 229 601 307 601 q 95 656 149 601 q 41 789 41 711 q 96 923 41 868 q 230 978 151 978 z "},"±":{"ha":1119,"x_min":0,"x_max":1017,"o":"m 136 0 q 0 136 0 0 l 0 882 q 136 1017 0 1017 l 882 1017 q 1017 882 1017 1017 l 1017 136 q 882 0 1017 0 l 136 0 m 882 17 q 1000 136 1000 17 l 1000 882 q 882 1000 1000 1000 l 136 1000 q 17 882 18 1000 l 17 136 q 136 17 18 17 l 882 17 z "},"²":{"ha":1119,"x_min":0,"x_max":1017,"o":"m 136 0 q 0 136 0 0 l 0 882 q 136 1017 0 1017 l 882 1017 q 1017 882 1017 1017 l 1017 136 q 882 0 1017 0 l 136 0 m 882 17 q 1000 136 1000 17 l 1000 882 q 882 1000 1000 1000 l 136 1000 q 17 882 18 1000 l 17 136 q 136 17 18 17 l 882 17 z "},"³":{"ha":1119,"x_min":0,"x_max":1017,"o":"m 136 0 q 0 136 0 0 l 0 882 q 136 1017 0 1017 l 882 1017 q 1017 882 1017 1017 l 1017 136 q 882 0 1017 0 l 136 0 m 882 17 q 1000 136 1000 17 l 1000 882 q 882 1000 1000 1000 l 136 1000 q 17 882 18 1000 l 17 136 q 136 17 18 17 l 882 17 z "},"´":{"ha":509,"x_min":68,"x_max":441,"o":"m 170 1153 l 441 1153 l 170 916 l 68 916 l 170 1153 z "},"µ":{"ha":848,"x_min":68,"x_max":780,"o":"m 610 644 l 779 644 l 780 170 q 627 0 780 0 l 237 0 l 237 -271 l 68 -271 l 68 644 l 238 644 l 237 170 l 576 170 q 610 203 610 170 l 610 644 z "},"¶":{"ha":694,"x_min":63,"x_max":630,"o":"m 630 973 l 630 926 l 544 926 l 544 0 l 488 0 l 488 926 l 376 926 l 376 0 l 319 0 l 319 500 q 132 570 201 506 q 63 736 63 634 q 136 908 63 843 q 330 973 209 973 l 630 973 z "},"·":{"ha":305,"x_min":68,"x_max":237,"o":"m 186 509 q 237 458 237 509 l 237 390 q 186 339 237 339 l 119 339 q 68 390 68 339 l 68 458 q 119 509 68 509 l 186 509 z "},"¸":{"ha":305,"x_min":-68,"x_max":237,"o":"m 237 -102 q 68 -271 237 -271 l -68 -271 l -68 -102 l 34 -102 q 68 -68 68 -102 l 68 68 l 237 68 l 237 -102 z "},"¹":{"ha":1119,"x_min":0,"x_max":1017,"o":"m 136 0 q 0 136 0 0 l 0 882 q 136 1017 0 1017 l 882 1017 q 1017 882 1017 1017 l 1017 136 q 882 0 1017 0 l 136 0 m 882 17 q 1000 136 1000 17 l 1000 882 q 882 1000 1000 1000 l 136 1000 q 17 882 18 1000 l 17 136 q 136 17 18 17 l 882 17 z "},"º":{"ha":1119,"x_min":0,"x_max":1017,"o":"m 136 0 q 0 136 0 0 l 0 882 q 136 1017 0 1017 l 882 1017 q 1017 882 1017 1017 l 1017 136 q 882 0 1017 0 l 136 0 m 882 17 q 1000 136 1000 17 l 1000 882 q 882 1000 1000 1000 l 136 1000 q 17 882 18 1000 l 17 136 q 136 17 18 17 l 882 17 z "},"»":{"ha":1085,"x_min":68,"x_max":1017,"o":"m 1017 339 l 509 102 l 509 271 l 836 424 l 509 576 l 509 746 l 1017 509 l 1017 339 m 576 339 l 68 102 l 68 271 l 395 424 l 68 576 l 68 746 l 576 509 l 576 339 z "},"¼":{"ha":1119,"x_min":0,"x_max":1017,"o":"m 136 0 q 0 136 0 0 l 0 882 q 136 1017 0 1017 l 882 1017 q 1017 882 1017 1017 l 1017 136 q 882 0 1017 0 l 136 0 m 882 17 q 1000 136 1000 17 l 1000 882 q 882 1000 1000 1000 l 136 1000 q 17 882 18 1000 l 17 136 q 136 17 18 17 l 882 17 z "},"½":{"ha":1119,"x_min":0,"x_max":1017,"o":"m 136 0 q 0 136 0 0 l 0 882 q 136 1017 0 1017 l 882 1017 q 1017 882 1017 1017 l 1017 136 q 882 0 1017 0 l 136 0 m 882 17 q 1000 136 1000 17 l 1000 882 q 882 1000 1000 1000 l 136 1000 q 17 882 18 1000 l 17 136 q 136 17 18 17 l 882 17 z "},"¾":{"ha":1119,"x_min":0,"x_max":1017,"o":"m 136 0 q 0 136 0 0 l 0 882 q 136 1017 0 1017 l 882 1017 q 1017 882 1017 1017 l 1017 136 q 882 0 1017 0 l 136 0 m 882 17 q 1000 136 1000 17 l 1000 882 q 882 1000 1000 1000 l 136 1000 q 17 882 18 1000 l 17 136 q 136 17 18 17 l 882 17 z "},"¿":{"ha":916,"x_min":68,"x_max":848,"o":"m 238 203 q 269 169 238 169 l 848 169 l 848 0 l 233 0 q 68 169 68 0 l 68 338 q 237 508 68 507 l 441 508 q 475 542 475 508 l 474 576 l 644 576 l 644 508 q 475 338 644 338 l 271 339 q 238 307 238 338 l 238 203 m 526 677 q 475 728 475 677 l 475 796 q 526 847 475 847 l 593 847 q 644 796 644 847 l 644 728 q 593 677 644 677 l 526 677 z "},"À":{"ha":983,"x_min":-68,"x_max":916,"o":"m 745 644 q 748 658 748 652 q 711 678 748 678 l 272 678 q 237 644 237 678 l 237 509 l 745 509 l 745 644 m 916 0 l 746 0 l 746 339 l 237 340 l 237 0 l 68 0 l 68 339 l -68 339 l 34 509 l 68 509 l 68 678 q 238 848 68 848 l 746 847 l 747 847 q 916 678 916 847 l 916 0 m 678 916 l 576 916 l 305 1153 l 576 1153 l 678 916 z "},"Á":{"ha":983,"x_min":-68,"x_max":916,"o":"m 745 644 q 748 658 748 652 q 711 678 748 678 l 272 678 q 237 644 237 678 l 237 509 l 745 509 l 745 644 m 916 0 l 746 0 l 746 339 l 237 340 l 237 0 l 68 0 l 68 339 l -68 339 l 34 509 l 68 509 l 68 678 q 238 848 68 848 l 746 847 l 747 847 q 916 678 916 847 l 916 0 m 407 1153 l 678 1153 l 407 916 l 305 916 l 407 1153 z "},"Â":{"ha":983,"x_min":-68,"x_max":916,"o":"m 745 644 q 748 658 748 652 q 711 678 748 678 l 272 678 q 237 644 237 678 l 237 509 l 745 509 l 745 644 m 916 0 l 746 0 l 746 339 l 237 340 l 237 0 l 68 0 l 68 339 l -68 339 l 34 509 l 68 509 l 68 678 q 238 848 68 848 l 746 847 l 747 847 q 916 678 916 847 l 916 0 m 492 1088 l 373 949 l 186 949 l 390 1187 l 593 1187 l 797 949 l 610 949 l 492 1088 z "},"Ã":{"ha":983,"x_min":-68,"x_max":916,"o":"m 745 644 q 748 658 748 652 q 711 678 748 678 l 272 678 q 237 644 237 678 l 237 509 l 745 509 l 745 644 m 916 0 l 746 0 l 746 339 l 237 340 l 237 0 l 68 0 l 68 339 l -68 339 l 34 509 l 68 509 l 68 678 q 238 848 68 848 l 746 847 l 747 847 q 916 678 916 847 l 916 0 m 373 983 q 339 949 339 983 l 339 916 l 170 916 l 170 983 q 340 1153 170 1153 l 610 1153 q 644 1187 644 1153 l 644 1221 l 814 1221 l 814 1153 q 644 983 814 983 l 373 983 z "},"Ä":{"ha":983,"x_min":-68,"x_max":916,"o":"m 745 644 q 748 658 748 652 q 711 678 748 678 l 272 678 q 237 644 237 678 l 237 509 l 745 509 l 745 644 m 916 0 l 746 0 l 746 339 l 237 340 l 237 0 l 68 0 l 68 339 l -68 339 l 34 509 l 68 509 l 68 678 q 238 848 68 848 l 746 847 l 747 847 q 916 678 916 847 l 916 0 m 373 1119 q 424 1068 424 1119 l 424 1000 q 373 949 424 949 l 305 949 q 254 1000 254 949 l 254 1068 q 305 1119 254 1119 l 373 1119 m 678 1119 q 729 1068 729 1119 l 729 1000 q 678 949 729 949 l 610 949 q 559 1000 559 949 l 559 1068 q 610 1119 559 1119 l 678 1119 z "},"Å":{"ha":983,"x_min":-68,"x_max":916,"o":"m 745 644 q 748 658 748 652 q 711 678 748 678 l 272 678 q 237 644 237 678 l 237 509 l 745 509 l 745 644 m 916 0 l 746 0 l 746 339 l 237 340 l 237 0 l 68 0 l 68 339 l -68 339 l 34 509 l 68 509 l 68 678 q 238 848 68 848 l 746 847 l 747 847 q 916 678 916 847 l 916 0 m 492 916 q 384 960 429 916 q 339 1068 339 1005 q 384 1176 339 1131 q 492 1221 429 1221 q 600 1176 555 1221 q 644 1068 644 1131 q 600 960 644 1005 q 492 916 555 916 z "},"Æ":{"ha":1526,"x_min":-68,"x_max":1458,"o":"m 677 644 q 644 678 677 677 l 272 678 q 237 644 237 678 l 237 509 l 677 509 l 677 644 m 543 339 l 237 340 l 237 0 l 68 0 l 68 339 l -68 339 l 34 509 l 68 509 l 68 678 q 238 848 68 848 l 644 847 l 644 848 l 1458 848 l 1458 678 l 848 678 l 848 508 l 1221 508 l 1118 339 l 848 339 l 848 170 l 1458 170 l 1458 0 l 678 0 l 678 339 l 543 339 z "},"Ç":{"ha":983,"x_min":68,"x_max":916,"o":"m 441 0 l 237 0 q 68 170 69 0 l 68 678 q 238 848 68 848 l 916 848 l 916 678 l 271 678 q 237 644 237 678 l 237 203 q 271 170 237 170 l 916 170 l 916 0 l 610 0 l 610 -102 q 441 -271 610 -271 l 305 -271 l 305 -102 l 407 -102 q 441 -68 441 -102 l 441 0 z "},"È":{"ha":983,"x_min":-68,"x_max":916,"o":"m 678 508 l 576 339 l 238 339 l 238 170 l 916 170 l 916 0 l 68 0 l 68 339 l -68 339 l 34 508 l 68 508 l 68 678 l -68 678 l 34 848 l 916 848 l 916 678 l 237 678 l 237 508 l 678 508 m 678 916 l 576 916 l 305 1153 l 576 1153 l 678 916 z "},"É":{"ha":983,"x_min":-68,"x_max":916,"o":"m 678 508 l 576 339 l 238 339 l 238 170 l 916 170 l 916 0 l 68 0 l 68 339 l -68 339 l 34 508 l 68 508 l 68 678 l -68 678 l 34 848 l 916 848 l 916 678 l 237 678 l 237 508 l 678 508 m 407 1153 l 678 1153 l 407 916 l 305 916 l 407 1153 z "},"Ê":{"ha":983,"x_min":-68,"x_max":916,"o":"m 678 508 l 576 339 l 238 339 l 238 170 l 916 170 l 916 0 l 68 0 l 68 339 l -68 339 l 34 508 l 68 508 l 68 678 l -68 678 l 34 848 l 916 848 l 916 678 l 237 678 l 237 508 l 678 508 m 492 1088 l 373 949 l 186 949 l 390 1187 l 593 1187 l 797 949 l 610 949 l 492 1088 z "},"Ë":{"ha":983,"x_min":-68,"x_max":916,"o":"m 678 508 l 576 339 l 238 339 l 238 170 l 916 170 l 916 0 l 68 0 l 68 339 l -68 339 l 34 508 l 68 508 l 68 678 l -68 678 l 34 848 l 916 848 l 916 678 l 237 678 l 237 508 l 678 508 m 373 1119 q 424 1068 424 1119 l 424 1000 q 373 949 424 949 l 305 949 q 254 1000 254 949 l 254 1068 q 305 1119 254 1119 l 373 1119 m 678 1119 q 729 1068 729 1119 l 729 1000 q 678 949 729 949 l 610 949 q 559 1000 559 949 l 559 1068 q 610 1119 559 1119 l 678 1119 z "},"Ì":{"ha":305,"x_min":-34,"x_max":339,"o":"m 237 0 l 68 0 l 68 848 l 237 848 l 237 0 m 339 916 l 237 916 l -34 1153 l 237 1153 l 339 916 z "},"Í":{"ha":305,"x_min":-34,"x_max":339,"o":"m 237 0 l 68 0 l 68 848 l 237 848 l 237 0 m 68 1153 l 339 1153 l 68 916 l -34 916 l 68 1153 z "},"Î":{"ha":305,"x_min":-153,"x_max":458,"o":"m 237 0 l 68 0 l 68 848 l 237 848 l 237 0 m 153 1088 l 34 949 l -153 949 l 51 1187 l 254 1187 l 458 949 l 271 949 l 153 1088 z "},"Ï":{"ha":305,"x_min":-85,"x_max":390,"o":"m 237 0 l 68 0 l 68 848 l 237 848 l 237 0 m 34 1119 q 85 1068 85 1119 l 85 1000 q 34 949 85 949 l -34 949 q -85 1000 -85 949 l -85 1068 q -34 1119 -85 1119 l 34 1119 m 339 1119 q 390 1068 390 1119 l 390 1000 q 339 949 390 949 l 271 949 q 220 1000 220 949 l 220 1068 q 271 1119 220 1119 l 339 1119 z "},"Ð":{"ha":983,"x_min":-68,"x_max":916,"o":"m 68 508 l 68 678 l -68 677 l 34 848 l 753 848 q 916 677 915 848 l 916 170 q 746 0 916 0 l 69 0 l 68 339 l -68 339 l 34 508 l 68 508 m 238 508 l 678 508 l 576 339 l 238 339 l 238 170 l 711 170 q 746 203 746 170 l 746 644 q 712 678 746 678 l 238 677 l 238 508 z "},"Ñ":{"ha":983,"x_min":-68,"x_max":916,"o":"m 916 0 l 745 0 l 745 644 q 712 678 745 678 l 237 678 l 237 0 l 69 0 l 68 678 l -68 678 l 34 848 l 746 848 q 916 678 916 848 l 916 0 m 373 983 q 339 949 339 983 l 339 916 l 170 916 l 170 983 q 340 1153 170 1153 l 610 1153 q 644 1187 644 1153 l 644 1221 l 814 1221 l 814 1153 q 644 983 814 983 l 373 983 z "},"Ò":{"ha":983,"x_min":68,"x_max":916,"o":"m 746 644 q 711 678 746 677 l 271 678 q 237 644 237 678 l 237 203 q 271 170 237 170 l 712 170 q 746 204 746 170 l 746 644 m 916 170 q 746 0 915 0 l 237 0 q 68 170 68 0 l 68 677 q 237 848 68 848 l 746 848 q 916 678 916 847 l 916 170 m 678 916 l 576 916 l 305 1153 l 576 1153 l 678 916 z "},"Ó":{"ha":983,"x_min":68,"x_max":916,"o":"m 746 644 q 711 678 746 677 l 271 678 q 237 644 237 678 l 237 203 q 271 170 237 170 l 712 170 q 746 204 746 170 l 746 644 m 916 170 q 746 0 915 0 l 237 0 q 68 170 68 0 l 68 677 q 237 848 68 848 l 746 848 q 916 678 916 847 l 916 170 m 407 1153 l 678 1153 l 407 916 l 305 916 l 407 1153 z "},"Ô":{"ha":983,"x_min":68,"x_max":916,"o":"m 746 644 q 711 678 746 677 l 271 678 q 237 644 237 678 l 237 203 q 271 170 237 170 l 712 170 q 746 204 746 170 l 746 644 m 916 170 q 746 0 915 0 l 237 0 q 68 170 68 0 l 68 677 q 237 848 68 848 l 746 848 q 916 678 916 847 l 916 170 m 492 1088 l 373 949 l 186 949 l 390 1187 l 593 1187 l 797 949 l 610 949 l 492 1088 z "},"Õ":{"ha":983,"x_min":68,"x_max":916,"o":"m 746 644 q 711 678 746 677 l 271 678 q 237 644 237 678 l 237 203 q 271 170 237 170 l 712 170 q 746 204 746 170 l 746 644 m 916 170 q 746 0 915 0 l 237 0 q 68 170 68 0 l 68 677 q 237 848 68 848 l 746 848 q 916 678 916 847 l 916 170 m 373 983 q 339 949 339 983 l 339 916 l 170 916 l 170 983 q 340 1153 170 1153 l 610 1153 q 644 1187 644 1153 l 644 1221 l 814 1221 l 814 1153 q 644 983 814 983 l 373 983 z "},"Ö":{"ha":983,"x_min":68,"x_max":916,"o":"m 746 644 q 711 678 746 677 l 271 678 q 237 644 237 678 l 237 203 q 271 170 237 170 l 712 170 q 746 204 746 170 l 746 644 m 916 170 q 746 0 915 0 l 237 0 q 68 170 68 0 l 68 677 q 237 848 68 848 l 746 848 q 916 678 916 847 l 916 170 m 373 1119 q 424 1068 424 1119 l 424 1000 q 373 949 424 949 l 305 949 q 254 1000 254 949 l 254 1068 q 305 1119 254 1119 l 373 1119 m 678 1119 q 729 1068 729 1119 l 729 1000 q 678 949 729 949 l 610 949 q 559 1000 559 949 l 559 1068 q 610 1119 559 1119 l 678 1119 z "},"×":{"ha":882,"x_min":34,"x_max":848,"o":"m 339 424 l 34 746 l 237 746 l 441 531 l 644 746 l 848 746 l 543 424 l 848 102 l 644 102 l 441 317 l 237 102 l 34 102 l 339 424 z "},"Ø":{"ha":983,"x_min":68,"x_max":916,"o":"m 916 678 l 916 170 q 746 0 915 0 l 237 0 q 68 170 68 0 l 68 677 q 237 848 68 848 l 746 848 q 916 678 916 847 m 237 311 l 678 678 l 271 678 q 237 644 237 678 l 237 311 m 746 537 l 305 170 l 712 170 q 746 204 746 170 l 746 537 z "},"Ù":{"ha":983,"x_min":68,"x_max":916,"o":"m 916 170 q 746 0 915 0 l 237 0 q 68 170 68 0 l 68 848 l 237 848 l 237 204 q 272 170 237 170 l 712 170 q 746 203 746 170 l 746 848 l 916 848 l 916 170 m 678 916 l 576 916 l 305 1153 l 576 1153 l 678 916 z "},"Ú":{"ha":983,"x_min":68,"x_max":916,"o":"m 916 170 q 746 0 915 0 l 237 0 q 68 170 68 0 l 68 848 l 237 848 l 237 204 q 272 170 237 170 l 712 170 q 746 203 746 170 l 746 848 l 916 848 l 916 170 m 407 1153 l 678 1153 l 407 916 l 305 916 l 407 1153 z "},"Û":{"ha":983,"x_min":68,"x_max":916,"o":"m 916 170 q 746 0 915 0 l 237 0 q 68 170 68 0 l 68 848 l 237 848 l 237 204 q 272 170 237 170 l 712 170 q 746 203 746 170 l 746 848 l 916 848 l 916 170 m 492 1088 l 373 949 l 186 949 l 390 1187 l 593 1187 l 797 949 l 610 949 l 492 1088 z "},"Ü":{"ha":983,"x_min":68,"x_max":916,"o":"m 916 170 q 746 0 915 0 l 237 0 q 68 170 68 0 l 68 848 l 237 848 l 237 204 q 272 170 237 170 l 712 170 q 746 203 746 170 l 746 848 l 916 848 l 916 170 m 373 1119 q 424 1068 424 1119 l 424 1000 q 373 949 424 949 l 305 949 q 254 1000 254 949 l 254 1068 q 305 1119 254 1119 l 373 1119 m 678 1119 q 729 1068 729 1119 l 729 1000 q 678 949 729 949 l 610 949 q 559 1000 559 949 l 559 1068 q 610 1119 559 1119 l 678 1119 z "},"Ý":{"ha":949,"x_min":68,"x_max":882,"o":"m 390 283 q 68 814 68 484 l 68 848 l 237 848 l 237 781 q 475 441 237 611 q 712 781 711 612 l 712 848 l 882 848 l 882 814 q 559 282 881 484 l 559 0 l 390 0 l 390 283 m 407 1153 l 678 1153 l 407 916 l 305 916 l 407 1153 z "},"Þ":{"ha":983,"x_min":-68,"x_max":916,"o":"m 746 542 q 713 576 746 576 l 237 576 l 238 271 l 713 271 q 747 306 747 272 l 746 542 m 237 746 l 746 746 q 916 576 916 746 l 916 271 q 747 102 916 102 l 238 102 l 238 0 l 70 0 l 68 103 l -67 103 l 35 271 l 68 271 l 68 576 l -68 576 l 69 746 l 68 747 l 68 848 l 238 848 l 237 747 l 237 746 z "},"ß":{"ha":983,"x_min":68,"x_max":916,"o":"m 237 0 l 68 0 l 68 678 q 237 848 68 848 l 750 848 q 916 678 916 847 l 916 576 q 847 425 915 475 q 916 306 915 374 l 916 170 q 745 0 916 0 l 305 0 l 441 170 l 712 170 q 746 204 746 170 l 746 305 q 712 339 746 339 l 305 339 l 441 508 l 712 508 q 746 543 745 508 l 746 644 q 712 678 746 678 l 271 678 q 237 644 237 678 l 237 0 z "},"à":{"ha":848,"x_min":68,"x_max":780,"o":"m 271 271 q 237 237 237 271 l 237 203 q 271 170 237 170 l 576 170 q 610 203 610 170 l 610 271 l 271 271 m 610 441 q 576 475 610 475 l 203 475 l 203 644 l 610 644 q 780 474 779 644 l 780 0 l 203 0 q 68 170 68 0 l 68 271 q 237 441 68 441 l 610 441 m 610 712 l 509 712 l 237 949 l 509 949 l 610 712 z "},"á":{"ha":848,"x_min":68,"x_max":780,"o":"m 271 271 q 237 237 237 271 l 237 203 q 271 170 237 170 l 576 170 q 610 203 610 170 l 610 271 l 271 271 m 610 441 q 576 475 610 475 l 203 475 l 203 644 l 610 644 q 780 474 779 644 l 780 0 l 203 0 q 68 170 68 0 l 68 271 q 237 441 68 441 l 610 441 m 339 949 l 610 949 l 339 712 l 237 712 l 339 949 z "},"â":{"ha":848,"x_min":68,"x_max":780,"o":"m 271 271 q 237 237 237 271 l 237 203 q 271 170 237 170 l 576 170 q 610 203 610 170 l 610 271 l 271 271 m 610 441 q 576 475 610 475 l 203 475 l 203 644 l 610 644 q 780 474 779 644 l 780 0 l 203 0 q 68 170 68 0 l 68 271 q 237 441 68 441 l 610 441 m 424 850 l 305 712 l 119 712 l 322 949 l 526 949 l 729 712 l 543 712 l 424 850 z "},"ã":{"ha":848,"x_min":68,"x_max":780,"o":"m 271 271 q 237 237 237 271 l 237 203 q 271 170 237 170 l 576 170 q 610 203 610 170 l 610 271 l 271 271 m 610 441 q 576 475 610 475 l 203 475 l 203 644 l 610 644 q 780 474 779 644 l 780 0 l 203 0 q 68 170 68 0 l 68 271 q 237 441 68 441 l 610 441 m 305 780 q 271 746 271 780 l 271 712 l 102 712 l 102 780 q 272 949 102 949 l 543 949 q 576 983 576 949 l 576 1017 l 746 1017 l 746 949 q 576 780 746 780 l 305 780 z "},"ä":{"ha":848,"x_min":68,"x_max":780,"o":"m 271 271 q 237 237 237 271 l 237 203 q 271 170 237 170 l 576 170 q 610 203 610 170 l 610 271 l 271 271 m 610 441 q 576 475 610 475 l 203 475 l 203 644 l 610 644 q 780 474 779 644 l 780 0 l 203 0 q 68 170 68 0 l 68 271 q 237 441 68 441 l 610 441 m 305 882 q 356 831 356 882 l 356 763 q 305 712 356 712 l 237 712 q 186 763 186 712 l 186 831 q 237 882 186 882 l 305 882 m 610 882 q 661 831 661 882 l 661 763 q 610 712 661 712 l 543 712 q 492 763 492 712 l 492 831 q 543 882 492 882 l 610 882 z "},"å":{"ha":848,"x_min":68,"x_max":780,"o":"m 271 271 q 237 237 237 271 l 237 203 q 271 170 237 170 l 576 170 q 610 203 610 170 l 610 271 l 271 271 m 610 441 q 576 475 610 475 l 203 475 l 203 644 l 610 644 q 780 474 779 644 l 780 0 l 203 0 q 68 170 68 0 l 68 271 q 237 441 68 441 l 610 441 m 424 712 q 316 757 361 712 q 271 865 271 802 q 316 972 271 928 q 424 1017 361 1017 q 532 972 487 1017 q 576 865 576 928 q 532 757 576 802 q 424 712 487 712 z "},"æ":{"ha":1255,"x_min":68,"x_max":1188,"o":"m 271 271 q 237 237 237 271 l 237 203 q 271 170 237 170 l 507 170 q 541 203 541 170 l 541 271 l 271 271 m 985 373 q 1017 407 1017 373 l 1017 441 q 983 475 1017 475 l 745 475 q 711 441 711 475 l 712 373 l 985 373 m 203 0 q 68 170 68 0 l 68 271 q 237 441 68 441 l 541 441 q 507 475 541 475 l 203 475 l 203 644 l 541 644 q 626 629 591 644 q 711 644 661 644 l 1051 644 q 1187 475 1187 644 l 1188 373 q 1019 203 1188 203 l 711 203 q 745 170 711 170 l 1051 170 l 1051 0 l 203 0 z "},"ç":{"ha":848,"x_min":66,"x_max":780,"o":"m 373 0 l 236 0 q 66 170 68 0 l 66 475 q 237 644 66 644 l 780 644 l 780 475 l 270 475 q 236 441 236 475 l 236 203 q 270 170 236 170 l 780 170 l 780 0 l 543 0 l 543 -102 q 373 -271 543 -271 l 237 -271 l 237 -102 l 339 -102 q 373 -68 373 -102 l 373 0 z "},"è":{"ha":848,"x_min":66,"x_max":781,"o":"m 578 373 q 610 407 610 373 l 610 441 q 576 475 610 475 l 270 475 q 236 441 236 475 l 237 373 l 578 373 m 236 203 q 270 170 236 170 l 644 170 l 644 0 l 236 0 q 66 170 68 0 l 66 475 q 237 644 66 644 l 644 644 q 780 475 780 644 l 781 373 q 612 203 781 203 l 236 203 m 610 712 l 509 712 l 237 949 l 509 949 l 610 712 z "},"é":{"ha":848,"x_min":66,"x_max":781,"o":"m 578 373 q 610 407 610 373 l 610 441 q 576 475 610 475 l 270 475 q 236 441 236 475 l 237 373 l 578 373 m 236 203 q 270 170 236 170 l 644 170 l 644 0 l 236 0 q 66 170 68 0 l 66 475 q 237 644 66 644 l 644 644 q 780 475 780 644 l 781 373 q 612 203 781 203 l 236 203 m 339 949 l 610 949 l 339 712 l 237 712 l 339 949 z "},"ê":{"ha":848,"x_min":66,"x_max":781,"o":"m 578 373 q 610 407 610 373 l 610 441 q 576 475 610 475 l 270 475 q 236 441 236 475 l 237 373 l 578 373 m 236 203 q 270 170 236 170 l 644 170 l 644 0 l 236 0 q 66 170 68 0 l 66 475 q 237 644 66 644 l 644 644 q 780 475 780 644 l 781 373 q 612 203 781 203 l 236 203 m 424 850 l 305 712 l 119 712 l 322 949 l 526 949 l 729 712 l 543 712 l 424 850 z "},"ë":{"ha":848,"x_min":66,"x_max":781,"o":"m 578 373 q 610 407 610 373 l 610 441 q 576 475 610 475 l 270 475 q 236 441 236 475 l 237 373 l 578 373 m 236 203 q 270 170 236 170 l 644 170 l 644 0 l 236 0 q 66 170 68 0 l 66 475 q 237 644 66 644 l 644 644 q 780 475 780 644 l 781 373 q 612 203 781 203 l 236 203 m 305 882 q 356 831 356 882 l 356 763 q 305 712 356 712 l 237 712 q 186 763 186 712 l 186 831 q 237 882 186 882 l 305 882 m 610 882 q 661 831 661 882 l 661 763 q 610 712 661 712 l 543 712 q 492 763 492 712 l 492 831 q 543 882 492 882 l 610 882 z "},"ì":{"ha":305,"x_min":-34,"x_max":339,"o":"m 237 0 l 68 0 l 68 644 l 237 644 l 237 0 m 339 712 l 237 712 l -34 949 l 237 949 l 339 712 z "},"í":{"ha":305,"x_min":-34,"x_max":339,"o":"m 237 0 l 68 0 l 68 644 l 237 644 l 237 0 m 68 949 l 339 949 l 68 712 l -34 712 l 68 949 z "},"î":{"ha":305,"x_min":-153,"x_max":458,"o":"m 237 0 l 68 0 l 68 644 l 237 644 l 237 0 m 153 850 l 34 712 l -153 712 l 51 949 l 254 949 l 458 712 l 271 712 l 153 850 z "},"ï":{"ha":305,"x_min":-85,"x_max":390,"o":"m 237 0 l 68 0 l 68 644 l 237 644 l 237 0 m 34 882 q 85 831 85 882 l 85 763 q 34 712 85 712 l -34 712 q -85 763 -85 712 l -85 831 q -34 882 -85 882 l 34 882 m 339 882 q 390 831 390 882 l 390 763 q 339 712 390 712 l 271 712 q 220 763 220 712 l 220 831 q 271 882 220 882 l 339 882 z "},"ð":{"ha":848,"x_min":68,"x_max":780,"o":"m 543 475 l 272 475 q 237 441 238 475 l 237 203 q 271 170 237 170 l 543 170 l 543 475 m 712 475 l 712 0 l 238 0 q 68 170 83 0 l 68 475 q 220 644 68 644 l 542 644 q 508 678 542 678 l 203 678 l 203 848 l 542 848 q 712 678 711 848 l 712 644 l 780 644 l 780 475 l 712 475 z "},"ñ":{"ha":848,"x_min":68,"x_max":780,"o":"m 780 0 l 610 0 l 610 441 q 576 475 610 475 l 237 475 l 237 0 l 68 0 l 68 644 l 610 644 q 780 475 780 644 l 780 0 m 305 780 q 271 746 271 780 l 271 712 l 102 712 l 102 780 q 272 949 102 949 l 543 949 q 576 983 576 949 l 576 1017 l 746 1017 l 746 949 q 576 780 746 780 l 305 780 z "},"ò":{"ha":882,"x_min":68,"x_max":781,"o":"m 271 170 l 576 170 q 611 203 610 170 l 611 441 q 577 475 611 475 l 271 475 q 237 441 237 475 l 237 203 q 271 170 237 170 m 237 0 q 68 170 68 0 l 68 475 q 237 644 68 644 l 610 644 q 781 475 765 644 l 781 170 q 628 0 781 0 l 237 0 m 610 712 l 509 712 l 237 949 l 509 949 l 610 712 z "},"ó":{"ha":882,"x_min":68,"x_max":781,"o":"m 271 170 l 576 170 q 611 203 610 170 l 611 441 q 577 475 611 475 l 271 475 q 237 441 237 475 l 237 203 q 271 170 237 170 m 237 0 q 68 170 68 0 l 68 475 q 237 644 68 644 l 610 644 q 781 475 765 644 l 781 170 q 628 0 781 0 l 237 0 m 339 949 l 610 949 l 339 712 l 237 712 l 339 949 z "},"ô":{"ha":882,"x_min":68,"x_max":781,"o":"m 271 170 l 576 170 q 611 203 610 170 l 611 441 q 577 475 611 475 l 271 475 q 237 441 237 475 l 237 203 q 271 170 237 170 m 237 0 q 68 170 68 0 l 68 475 q 237 644 68 644 l 610 644 q 781 475 765 644 l 781 170 q 628 0 781 0 l 237 0 m 424 850 l 305 712 l 119 712 l 322 949 l 526 949 l 729 712 l 543 712 l 424 850 z "},"õ":{"ha":882,"x_min":68,"x_max":781,"o":"m 271 170 l 576 170 q 611 203 610 170 l 611 441 q 577 475 611 475 l 271 475 q 237 441 237 475 l 237 203 q 271 170 237 170 m 237 0 q 68 170 68 0 l 68 475 q 237 644 68 644 l 610 644 q 781 475 765 644 l 781 170 q 628 0 781 0 l 237 0 m 305 780 q 271 746 271 780 l 271 712 l 102 712 l 102 780 q 272 949 102 949 l 543 949 q 576 983 576 949 l 576 1017 l 746 1017 l 746 949 q 576 780 746 780 l 305 780 z "},"ö":{"ha":882,"x_min":68,"x_max":781,"o":"m 271 170 l 576 170 q 611 203 610 170 l 611 441 q 577 475 611 475 l 271 475 q 237 441 237 475 l 237 203 q 271 170 237 170 m 237 0 q 68 170 68 0 l 68 475 q 237 644 68 644 l 610 644 q 781 475 765 644 l 781 170 q 628 0 781 0 l 237 0 m 305 882 q 356 831 356 882 l 356 763 q 305 712 356 712 l 237 712 q 186 763 186 712 l 186 831 q 237 882 186 882 l 305 882 m 610 882 q 661 831 661 882 l 661 763 q 610 712 661 712 l 543 712 q 492 763 492 712 l 492 831 q 543 882 492 882 l 610 882 z "},"÷":{"ha":780,"x_min":68,"x_max":712,"o":"m 711 509 l 712 339 l 68 339 l 68 509 l 711 509 m 424 237 q 475 186 475 237 l 475 119 q 424 68 475 68 l 356 68 q 305 119 305 68 l 305 186 q 356 237 305 237 l 424 237 m 424 780 q 475 729 475 780 l 475 661 q 424 610 475 610 l 356 610 q 305 661 305 610 l 305 729 q 356 780 305 780 l 424 780 z "},"ø":{"ha":882,"x_min":68,"x_max":781,"o":"m 509 475 l 271 475 q 237 441 237 475 l 237 287 l 509 475 m 339 170 l 576 170 q 611 203 610 170 l 611 358 l 339 170 m 237 0 q 68 170 68 0 l 68 475 q 237 644 68 644 l 610 644 q 781 475 765 644 l 781 170 q 628 0 781 0 l 237 0 z "},"ù":{"ha":848,"x_min":68,"x_max":780,"o":"m 780 170 q 610 0 779 0 l 237 0 q 68 170 68 0 l 68 644 l 237 644 l 237 204 q 272 170 237 170 l 576 170 q 610 203 610 170 l 610 644 l 780 644 l 780 170 m 610 712 l 509 712 l 237 949 l 509 949 l 610 712 z "},"ú":{"ha":848,"x_min":68,"x_max":780,"o":"m 780 170 q 610 0 779 0 l 237 0 q 68 170 68 0 l 68 644 l 237 644 l 237 204 q 272 170 237 170 l 576 170 q 610 203 610 170 l 610 644 l 780 644 l 780 170 m 339 949 l 610 949 l 339 712 l 237 712 l 339 949 z "},"û":{"ha":848,"x_min":68,"x_max":780,"o":"m 780 170 q 610 0 779 0 l 237 0 q 68 170 68 0 l 68 644 l 237 644 l 237 204 q 272 170 237 170 l 576 170 q 610 203 610 170 l 610 644 l 780 644 l 780 170 m 424 850 l 305 712 l 119 712 l 322 949 l 526 949 l 729 712 l 543 712 l 424 850 z "},"ü":{"ha":848,"x_min":68,"x_max":780,"o":"m 780 170 q 610 0 779 0 l 237 0 q 68 170 68 0 l 68 644 l 237 644 l 237 204 q 272 170 237 170 l 576 170 q 610 203 610 170 l 610 644 l 780 644 l 780 170 m 305 882 q 356 831 356 882 l 356 763 q 305 712 356 712 l 237 712 q 186 763 186 712 l 186 831 q 237 882 186 882 l 305 882 m 610 882 q 661 831 661 882 l 661 763 q 610 712 661 712 l 543 712 q 492 763 492 712 l 492 831 q 543 882 492 882 l 610 882 z "},"ý":{"ha":848,"x_min":68,"x_max":781,"o":"m 610 644 l 781 644 l 781 -102 q 610 -271 780 -271 l 203 -271 l 203 -102 l 576 -102 q 610 -68 610 -102 l 610 0 l 220 0 q 68 170 68 0 l 68 644 l 237 644 l 237 203 q 272 170 238 170 l 611 170 l 610 644 m 339 949 l 610 949 l 339 712 l 237 712 l 339 949 z "},"þ":{"ha":848,"x_min":68,"x_max":780,"o":"m 237 170 l 576 170 q 610 203 610 170 l 610 441 q 576 475 610 475 l 237 475 l 237 170 m 237 644 l 610 644 q 780 475 764 644 l 780 170 q 627 0 780 0 l 237 0 l 237 -271 l 68 -271 l 68 848 l 237 848 l 237 644 z "},"ÿ":{"ha":848,"x_min":68,"x_max":781,"o":"m 610 644 l 781 644 l 781 -102 q 610 -271 780 -271 l 203 -271 l 203 -102 l 576 -102 q 610 -68 610 -102 l 610 0 l 220 0 q 68 170 68 0 l 68 644 l 237 644 l 237 203 q 272 170 238 170 l 611 170 l 610 644 m 305 882 q 356 831 356 882 l 356 763 q 305 712 356 712 l 237 712 q 186 763 186 712 l 186 831 q 237 882 186 882 l 305 882 m 610 882 q 661 831 661 882 l 661 763 q 610 712 661 712 l 543 712 q 492 763 492 712 l 492 831 q 543 882 492 882 l 610 882 z "},"ı":{"ha":305,"x_min":68,"x_max":237,"o":"m 237 0 l 68 0 l 68 644 l 237 644 l 237 0 z "},"ˆ":{"ha":746,"x_min":68,"x_max":678,"o":"m 373 1088 l 254 949 l 68 949 l 271 1187 l 475 1187 l 678 949 l 492 949 l 373 1088 z "},"ˇ":{"ha":746,"x_min":68,"x_max":678,"o":"m 492 1187 l 678 1187 l 475 949 l 271 949 l 68 1187 l 254 1187 l 373 1048 l 492 1187 z "},"ˉ":{"ha":694,"x_min":172,"x_max":522,"o":"m 172 810 l 172 895 l 522 895 l 522 810 l 172 810 z "},"˘":{"ha":694,"x_min":149,"x_max":545,"o":"m 149 915 l 183 915 q 234 842 195 865 q 347 819 273 819 q 460 842 421 819 q 510 915 498 865 l 545 915 q 481 778 531 825 q 347 732 431 732 q 214 779 264 732 q 149 915 163 825 z "},"˙":{"ha":694,"x_min":277,"x_max":422,"o":"m 286 874 l 333 923 q 342 929 337 927 q 351 931 347 931 q 360 929 355 931 q 368 923 364 927 l 416 871 q 421 865 420 869 q 422 855 422 861 q 420 845 422 849 q 415 837 419 841 l 367 785 q 356 776 359 778 q 351 774 353 774 q 340 776 345 774 q 333 782 336 778 l 282 841 q 278 847 279 844 q 277 857 277 851 q 279 865 277 861 q 286 874 281 869 z "},"˚":{"ha":441,"x_min":68,"x_max":373,"o":"m 220 916 q 113 960 157 916 q 68 1068 68 1005 q 113 1176 68 1131 q 220 1221 157 1221 q 328 1176 283 1221 q 373 1068 373 1131 q 328 960 373 1005 q 220 916 283 916 z "},"˛":{"ha":305,"x_min":68,"x_max":373,"o":"m 68 68 l 237 68 l 237 -68 q 271 -102 237 -102 l 373 -102 l 373 -271 l 237 -271 q 68 -102 68 -271 l 68 68 z "},"˜":{"ha":780,"x_min":68,"x_max":712,"o":"m 271 983 q 237 949 237 983 l 237 916 l 68 916 l 68 983 q 238 1153 68 1153 l 509 1153 q 543 1187 543 1153 l 543 1221 l 712 1221 l 712 1153 q 542 983 712 983 l 271 983 z "},"˝":{"ha":475,"x_min":0,"x_max":373,"o":"m 119 1221 q 170 1170 170 1221 l 170 1051 l 68 882 l 0 882 l 0 1170 q 51 1221 0 1221 l 119 1221 m 322 1221 q 373 1170 373 1221 l 373 1051 l 271 882 l 203 882 l 203 1170 q 254 1221 203 1221 l 322 1221 z "},"–":{"ha":780,"x_min":68,"x_max":712,"o":"m 711 509 l 712 339 l 68 339 l 68 509 l 711 509 z "},"—":{"ha":916,"x_min":68,"x_max":848,"o":"m 847 509 l 848 339 l 68 339 l 68 509 l 847 509 z "},"‘":{"ha":305,"x_min":68,"x_max":237,"o":"m 119 543 q 68 593 68 543 l 68 712 l 170 882 l 237 882 l 237 593 q 186 543 237 543 l 119 543 z "},"’":{"ha":305,"x_min":68,"x_max":237,"o":"m 186 882 q 237 831 237 882 l 237 712 l 136 543 l 68 543 l 68 831 q 119 882 68 882 l 186 882 z "},"‚":{"ha":305,"x_min":68,"x_max":237,"o":"m 186 170 q 237 119 237 170 l 237 0 l 136 -170 l 68 -170 l 68 119 q 119 170 68 170 l 186 170 z "},"“":{"ha":543,"x_min":68,"x_max":475,"o":"m 356 543 q 305 593 305 543 l 305 712 l 407 882 l 475 882 l 475 593 q 424 543 475 543 l 356 543 m 119 543 q 68 593 68 543 l 68 712 l 170 882 l 237 882 l 237 593 q 186 543 237 543 l 119 543 z "},"”":{"ha":543,"x_min":68,"x_max":475,"o":"m 186 882 q 237 831 237 882 l 237 712 l 136 543 l 68 543 l 68 831 q 119 882 68 882 l 186 882 m 424 882 q 475 831 475 882 l 475 712 l 373 543 l 305 543 l 305 831 q 356 882 305 882 l 424 882 z "},"„":{"ha":543,"x_min":68,"x_max":475,"o":"m 186 170 q 237 119 237 170 l 237 0 l 136 -170 l 68 -170 l 68 119 q 119 170 68 170 l 186 170 m 424 170 q 475 119 475 170 l 475 0 l 373 -170 l 305 -170 l 305 119 q 356 170 305 170 l 424 170 z "},"†":{"ha":688,"x_min":48,"x_max":640,"o":"m 330 693 q 293 814 324 759 q 254 901 254 882 q 279 955 254 935 q 344 975 303 975 q 408 956 382 975 q 433 907 433 937 q 396 814 433 886 q 359 693 365 757 q 479 730 424 699 q 566 768 547 768 q 620 744 600 768 q 640 679 640 720 q 622 615 640 640 q 572 589 603 589 q 480 627 551 589 q 359 665 422 658 q 433 477 364 546 q 357 -183 361 165 l 332 -183 q 254 477 328 165 q 330 665 323 546 q 209 628 264 659 q 121 589 140 589 q 68 614 88 589 q 48 679 48 638 q 67 743 48 718 q 115 768 85 768 q 208 730 137 768 q 330 693 266 699 z "},"‡":{"ha":688,"x_min":47,"x_max":640,"o":"m 358 126 q 479 165 422 134 q 572 202 550 202 q 621 177 602 202 q 640 113 640 151 q 619 47 640 72 q 566 23 599 23 q 478 62 547 23 q 358 98 423 93 q 395 -23 364 35 q 433 -116 433 -94 q 407 -164 433 -146 q 343 -183 382 -183 q 278 -163 302 -183 q 254 -110 254 -143 q 292 -22 254 -91 q 329 98 323 33 q 208 61 265 92 q 115 23 136 23 q 66 48 85 23 q 47 113 47 74 q 67 178 47 153 q 121 202 87 202 q 208 163 140 202 q 329 126 264 133 q 254 396 323 279 q 329 665 323 512 q 208 628 264 659 q 121 589 140 589 q 67 614 87 589 q 47 679 47 638 q 66 743 47 718 q 115 768 85 768 q 208 730 136 768 q 329 693 265 699 q 292 814 323 759 q 254 901 254 882 q 278 955 254 935 q 343 975 302 975 q 407 956 382 975 q 433 907 433 937 q 395 814 433 886 q 358 693 364 757 q 478 730 423 699 q 566 768 547 768 q 619 744 599 768 q 640 679 640 720 q 621 615 640 640 q 572 589 602 589 q 479 627 550 589 q 358 665 422 658 q 433 396 363 512 q 358 126 363 279 z "},"•":{"ha":694,"x_min":146,"x_max":548,"o":"m 146 487 q 205 629 146 570 q 348 687 264 687 q 489 628 431 687 q 548 487 548 570 q 489 345 548 404 q 347 286 429 286 q 205 345 263 286 q 146 487 146 404 z "},"…":{"ha":780,"x_min":68,"x_max":712,"o":"m 186 170 q 237 119 237 170 l 237 51 q 186 0 237 0 l 119 0 q 68 51 68 0 l 68 119 q 119 170 68 170 l 186 170 m 424 170 q 475 119 475 170 l 475 51 q 424 0 475 0 l 356 0 q 305 51 305 0 l 305 119 q 356 170 305 170 l 424 170 m 661 170 q 712 119 712 170 l 712 51 q 661 0 712 0 l 593 0 q 543 51 543 0 l 543 119 q 593 170 543 170 l 661 170 z "},"‹":{"ha":780,"x_min":68,"x_max":712,"o":"m 68 509 l 712 746 l 712 576 l 298 424 l 712 271 l 712 102 l 68 339 l 68 509 z "},"›":{"ha":780,"x_min":68,"x_max":712,"o":"m 712 339 l 68 102 l 68 271 l 482 424 l 68 576 l 68 746 l 712 509 l 712 339 z "},"⁄":{"ha":610,"x_min":1,"x_max":543,"o":"m 203 0 l 1 0 l 339 848 l 543 848 l 203 0 z "},"₣":{"ha":916,"x_min":-68,"x_max":848,"o":"m 68 271 l 68 339 l -68 340 l 34 508 l 68 508 l 68 678 l -68 678 l 34 848 l 848 848 l 848 678 l 237 678 l 237 508 l 610 508 l 508 339 l 237 339 l 237 271 l 610 271 l 508 102 l 237 102 l 237 0 l 68 0 l 68 102 l -68 102 l 34 271 l 68 271 z "},"₤":{"ha":916,"x_min":68,"x_max":848,"o":"m 203 170 l 203 339 l 68 339 l 68 508 l 203 509 l 203 678 q 374 848 205 848 l 712 848 l 712 678 l 408 678 q 374 644 374 678 l 374 509 l 610 509 l 509 339 l 374 339 l 374 170 l 848 170 l 848 0 l 68 0 l 68 170 l 203 170 z "},"₧":{"ha":916,"x_min":-68,"x_max":848,"o":"m 678 644 q 646 678 678 677 l 237 678 l 237 508 l 644 508 q 678 543 678 509 l 678 644 m 68 271 l 68 340 l -68 340 l 35 508 l 68 508 l 68 677 l -68 678 l 68 848 l 678 848 q 848 678 848 848 l 848 508 q 678 339 848 339 l 237 339 l 237 271 l 577 271 l 475 102 l 237 102 l 237 0 l 69 0 l 68 102 l -68 102 l 34 271 l 68 271 z "},"€":{"ha":848,"x_min":-69,"x_max":780,"o":"m 66 610 l 66 678 q 237 848 66 848 l 780 848 l 780 678 l 270 678 q 236 644 236 678 l 236 610 l 678 610 l 576 441 l 236 441 l 236 407 l 678 407 l 576 238 l 236 238 l 236 203 q 270 170 236 170 l 780 170 l 780 0 l 236 0 q 66 170 68 0 l 66 238 l -69 238 l 33 407 l 66 407 l 66 441 l -69 441 l 33 610 l 66 610 z "},"№":{"ha":1017,"x_min":0,"x_max":949,"o":"m 492 424 l 407 424 l 407 746 q 390 763 407 763 l 153 763 l 153 424 l 68 424 l 68 763 l 0 763 l 51 848 l 407 848 q 492 763 492 848 l 492 424 m 865 746 q 848 763 865 763 l 627 763 q 610 746 610 763 l 610 526 q 627 509 610 509 l 848 509 q 865 526 865 509 l 865 746 m 949 509 q 865 424 949 424 l 610 424 q 526 509 526 424 l 526 763 q 610 848 526 848 l 865 848 q 949 763 949 848 l 949 509 z "},"™":{"ha":1119,"x_min":0,"x_max":1051,"o":"m 322 763 l 322 424 l 237 424 l 237 763 l 0 763 l 51 848 l 492 848 l 492 819 l 509 848 l 966 848 q 1051 763 1051 848 l 1051 424 l 966 424 l 966 746 q 949 763 966 763 l 831 763 l 831 424 l 746 424 l 746 763 l 611 763 l 611 424 l 526 424 l 526 763 l 322 763 z "},"∂":{"ha":1119,"x_min":0,"x_max":1017,"o":"m 136 0 q 0 136 0 0 l 0 882 q 136 1017 0 1017 l 882 1017 q 1017 882 1017 1017 l 1017 136 q 882 0 1017 0 l 136 0 m 882 17 q 1000 136 1000 17 l 1000 882 q 882 1000 1000 1000 l 136 1000 q 17 882 18 1000 l 17 136 q 136 17 18 17 l 882 17 z "},"∆":{"ha":1119,"x_min":0,"x_max":1017,"o":"m 136 0 q 0 136 0 0 l 0 882 q 136 1017 0 1017 l 882 1017 q 1017 882 1017 1017 l 1017 136 q 882 0 1017 0 l 136 0 m 882 17 q 1000 136 1000 17 l 1000 882 q 882 1000 1000 1000 l 136 1000 q 17 882 18 1000 l 17 136 q 136 17 18 17 l 882 17 z "},"∏":{"ha":1119,"x_min":0,"x_max":1017,"o":"m 136 0 q 0 136 0 0 l 0 882 q 136 1017 0 1017 l 882 1017 q 1017 882 1017 1017 l 1017 136 q 882 0 1017 0 l 136 0 m 882 17 q 1000 136 1000 17 l 1000 882 q 882 1000 1000 1000 l 136 1000 q 17 882 18 1000 l 17 136 q 136 17 18 17 l 882 17 z "},"∑":{"ha":1119,"x_min":0,"x_max":1017,"o":"m 136 0 q 0 136 0 0 l 0 882 q 136 1017 0 1017 l 882 1017 q 1017 882 1017 1017 l 1017 136 q 882 0 1017 0 l 136 0 m 882 17 q 1000 136 1000 17 l 1000 882 q 882 1000 1000 1000 l 136 1000 q 17 882 18 1000 l 17 136 q 136 17 18 17 l 882 17 z "},"−":{"ha":780,"x_min":68,"x_max":712,"o":"m 711 509 l 712 339 l 68 339 l 68 509 l 711 509 z "},"≈":{"ha":1119,"x_min":0,"x_max":1017,"o":"m 136 0 q 0 136 0 0 l 0 882 q 136 1017 0 1017 l 882 1017 q 1017 882 1017 1017 l 1017 136 q 882 0 1017 0 l 136 0 m 882 17 q 1000 136 1000 17 l 1000 882 q 882 1000 1000 1000 l 136 1000 q 17 882 18 1000 l 17 136 q 136 17 18 17 l 882 17 z "},"≤":{"ha":1119,"x_min":0,"x_max":1017,"o":"m 136 0 q 0 136 0 0 l 0 882 q 136 1017 0 1017 l 882 1017 q 1017 882 1017 1017 l 1017 136 q 882 0 1017 0 l 136 0 m 882 17 q 1000 136 1000 17 l 1000 882 q 882 1000 1000 1000 l 136 1000 q 17 882 18 1000 l 17 136 q 136 17 18 17 l 882 17 z "},"≥":{"ha":1119,"x_min":0,"x_max":1017,"o":"m 136 0 q 0 136 0 0 l 0 882 q 136 1017 0 1017 l 882 1017 q 1017 882 1017 1017 l 1017 136 q 882 0 1017 0 l 136 0 m 882 17 q 1000 136 1000 17 l 1000 882 q 882 1000 1000 1000 l 136 1000 q 17 882 18 1000 l 17 136 q 136 17 18 17 l 882 17 z "},"":{"ha":728,"x_min":0,"x_max":0,"o":""},"":{"ha":733,"x_min":0,"x_max":0,"o":""},"Œ":{"ha":1526,"x_min":68,"x_max":1458,"o":"m 678 644 q 644 678 678 677 l 271 678 q 237 644 237 678 l 237 203 q 271 170 237 170 l 644 170 q 678 204 678 170 l 678 644 m 237 0 q 68 170 68 0 l 68 677 q 237 848 68 848 l 1458 848 l 1458 678 l 848 678 l 848 508 l 1221 508 l 1118 339 l 848 339 l 848 170 l 1458 170 l 1458 0 l 237 0 z "},"œ":{"ha":1255,"x_min":68,"x_max":1188,"o":"m 271 170 l 506 170 q 541 203 540 170 l 541 441 q 507 475 541 475 l 271 475 q 237 441 237 475 l 237 203 q 271 170 237 170 m 630 13 q 557 0 600 0 l 237 0 q 68 170 68 0 l 68 475 q 237 644 68 644 l 540 644 q 622 628 587 644 q 710 644 658 644 l 1051 644 q 1187 475 1187 644 l 1188 373 q 1019 203 1188 203 l 710 203 l 710 195 q 743 170 714 170 l 1051 170 l 1051 0 l 709 0 q 630 13 663 0 m 710 450 l 710 407 l 711 373 l 985 373 q 1017 407 1017 373 l 1017 441 q 983 475 1017 475 l 743 475 q 710 450 714 475 z "},"‰":{"ha":1356,"x_min":68,"x_max":1289,"o":"m 271 509 l 373 509 q 408 542 407 509 l 408 644 q 374 678 408 678 l 272 678 q 238 644 238 678 l 237 543 q 271 509 237 509 m 644 170 l 746 170 q 781 203 780 170 l 781 305 q 747 339 781 339 l 645 339 q 611 305 611 339 l 610 203 q 644 170 610 170 m 982 170 l 1084 170 q 1118 203 1118 170 l 1119 305 q 1085 339 1119 339 l 983 339 q 949 305 949 339 l 948 203 q 982 170 948 170 m 466 64 l 440 0 l 237 0 l 373 339 l 237 339 q 68 509 68 339 l 68 678 q 238 848 68 848 l 408 848 q 551 785 510 848 l 576 848 l 779 848 l 644 509 l 781 509 q 865 494 829 509 q 949 509 900 509 l 1118 509 q 1289 339 1288 509 l 1288 170 q 1135 0 1288 0 l 948 0 q 869 12 902 0 q 798 0 839 0 l 610 0 q 466 64 506 0 z "}}}
